<svg width="104" height="103" viewBox="0 0 104 103" fill="none" xmlns="http://www.w3.org/2000/svg">
<path d="M67.0805 14.3547C67.0805 17.8287 65.6892 21.7983 63.7046 25.6792C61.7251 29.5498 59.1822 33.2814 56.9362 36.2663C54.4038 39.6315 49.5961 39.6315 47.0637 36.2663C44.8176 33.2814 42.2747 29.5498 40.2953 25.6792C38.3107 21.7983 36.9193 17.8287 36.9193 14.3547C36.9193 6.7406 43.6318 0.5 51.9999 0.5C60.3681 0.5 67.0805 6.7406 67.0805 14.3547ZM51.9999 20.0744C54.4297 20.0744 56.3951 18.0955 56.3951 15.6595C56.3951 13.2236 54.4297 11.2446 51.9999 11.2446C49.5702 11.2446 47.6048 13.2236 47.6048 15.6595C47.6048 18.0955 49.5702 20.0744 51.9999 20.0744Z" fill="#FF9446" stroke="#9A480D"/>
<path d="M79.6451 65.2096C76.1736 65.2096 72.2055 63.7888 68.3245 61.761C64.4541 59.7387 60.7226 57.1405 57.7376 54.8456C54.3669 52.2539 54.3669 47.3265 57.7376 44.7348C60.7226 42.4399 64.4541 39.8418 68.3245 37.8195C72.2055 35.7916 76.1736 34.3709 79.6451 34.3709C87.2496 34.3709 93.4998 41.2245 93.4998 49.7902C93.4998 58.356 87.2496 65.2096 79.6451 65.2096ZM73.9254 49.7902C73.9254 52.2566 75.8942 54.2701 78.3403 54.2701C80.7864 54.2701 82.7552 52.2566 82.7552 49.7902C82.7552 47.3239 80.7864 45.3104 78.3403 45.3104C75.8942 45.3104 73.9254 47.3239 73.9254 49.7902Z" fill="#FF9446" stroke="#9A480D"/>
<path d="M24.6022 34.3709C28.1376 34.3709 32.1769 35.793 36.125 37.8211C40.063 39.8438 43.8594 42.4423 46.8959 44.7373C50.3249 47.3291 50.3249 52.2513 46.8959 54.8431C43.8594 57.1381 40.063 59.7366 36.125 61.7594C32.1769 63.7874 28.1376 65.2095 24.6022 65.2095C16.8534 65.2095 10.5 58.3476 10.5 49.7902C10.5 41.2328 16.8534 34.3709 24.6022 34.3709ZM30.4119 49.7902C30.4119 47.3158 28.4048 45.3104 25.9295 45.3104C23.4542 45.3104 21.4471 47.3158 21.4471 49.7902C21.4471 52.2646 23.4542 54.27 25.9295 54.27C28.4048 54.27 30.4119 52.2646 30.4119 49.7902Z" fill="#FF9446" stroke="#9A480D"/>
<mask id="path-4-inside-1_1_32" fill="white">
<path d="M12.4829 96H0.818863L9.40486 81.015H2.84386C2.48386 81.177 2.30386 81.744 2.30386 82.716H1.73686V80.205H12.6179L4.03186 95.19H11.3759C11.9339 94.956 12.3479 94.362 12.6179 93.408H13.1849L12.4829 96ZM22.9319 96V95.433C23.7599 95.433 24.2819 95.325 24.4979 95.109L22.9859 90.978H17.8019L16.3979 94.947C16.5779 95.271 17.1359 95.433 18.0719 95.433V96H13.6439V95.433C14.6519 95.433 15.2189 95.244 15.3449 94.866L20.5829 80.205H21.8789L27.1169 94.866C27.2429 95.244 27.8189 95.433 28.8449 95.433V96H22.9319ZM20.3669 83.796L18.1259 90.087H22.6619L20.3669 83.796ZM37.7616 80.853C36.2136 80.853 34.8816 81.582 33.7656 83.04C32.6496 84.48 32.0916 86.226 32.0916 88.278C32.0916 89.52 32.2536 90.618 32.5776 91.572C32.9016 92.526 33.3336 93.273 33.8736 93.813C34.4136 94.335 34.9806 94.722 35.5746 94.974C36.1686 95.226 36.7716 95.352 37.3836 95.352C38.3916 95.352 39.3456 95.181 40.2456 94.839V89.304C40.0836 88.944 39.5166 88.764 38.5446 88.764V88.197H44.4306V88.764C43.4586 88.764 42.8916 88.944 42.7296 89.304V93.84C42.4236 94.416 41.8026 94.965 40.8666 95.487C39.9486 96.009 38.7696 96.27 37.3296 96.27C34.9176 96.27 32.9736 95.487 31.4976 93.921C30.0216 92.355 29.2836 90.492 29.2836 88.332C29.2836 85.83 30.1296 83.805 31.8216 82.257C33.5136 80.709 35.4846 79.935 37.7346 79.935C38.2566 79.935 38.9046 80.07 39.6786 80.34C40.4526 80.61 40.8936 80.745 41.0016 80.745C41.2176 80.745 41.3256 80.565 41.3256 80.205H41.9466L42.2166 83.634H41.6226C41.5146 82.842 41.1186 82.185 40.4346 81.663C39.7506 81.123 38.8596 80.853 37.7616 80.853ZM46.0017 96V95.433C46.9737 95.433 47.5407 95.253 47.7027 94.893V81.312C47.5407 80.952 46.9737 80.772 46.0017 80.772V80.205H52.1037C54.3357 80.205 56.0277 80.61 57.1797 81.42C58.3317 82.23 58.9077 83.157 58.9077 84.201C58.9077 85.191 58.6107 86.064 58.0167 86.82C57.4227 87.558 56.5407 88.098 55.3707 88.44L58.9617 94.866C59.1417 95.244 59.7357 95.433 60.7437 95.433V96H59.5827C58.3227 96 57.5037 95.928 57.1257 95.784C56.7477 95.64 56.3697 95.244 55.9917 94.596L52.7247 88.818H50.1867V94.893C50.3487 95.253 50.9157 95.433 51.8877 95.433V96H46.0017ZM50.1867 81.123V87.9H52.4277C53.8677 87.9 54.8577 87.621 55.3977 87.063C55.9377 86.505 56.2077 85.56 56.2077 84.228C56.2077 83.238 55.9017 82.473 55.2897 81.933C54.6957 81.393 53.6337 81.123 52.1037 81.123H50.1867ZM64.4442 87.9C64.4442 89.088 64.6062 90.231 64.9302 91.329C65.2722 92.409 65.8212 93.354 66.5772 94.164C67.3512 94.956 68.2692 95.352 69.3312 95.352C70.3932 95.352 71.2842 94.974 72.0042 94.218C72.7422 93.462 73.2552 92.58 73.5432 91.572C73.8492 90.546 74.0022 89.466 74.0022 88.332C74.0022 87.162 73.8312 86.028 73.4892 84.93C73.1472 83.814 72.5892 82.86 71.8152 82.068C71.0592 81.258 70.1592 80.853 69.1152 80.853C68.3052 80.853 67.5852 81.069 66.9552 81.501C66.3432 81.933 65.8572 82.509 65.4972 83.229C65.1552 83.931 64.8942 84.678 64.7142 85.47C64.5342 86.262 64.4442 87.072 64.4442 87.9ZM61.7442 88.116C61.7442 85.866 62.4462 83.94 63.8502 82.338C65.2542 80.736 67.0452 79.935 69.2232 79.935C71.4012 79.935 73.1922 80.736 74.5962 82.338C76.0002 83.94 76.7022 85.866 76.7022 88.116C76.7022 90.366 75.9912 92.292 74.5692 93.894C73.1652 95.478 71.3832 96.27 69.2232 96.27C67.0272 96.27 65.2272 95.478 63.8232 93.894C62.4372 92.31 61.7442 90.384 61.7442 88.116ZM84.576 96.27C83.694 96.27 82.794 96.135 81.876 95.865C80.958 95.595 80.481 95.46 80.445 95.46C80.337 95.46 80.211 95.514 80.067 95.622C79.923 95.73 79.851 95.856 79.851 96H79.23V92.247H79.824C80.022 93.327 80.553 94.119 81.417 94.623C82.299 95.109 83.298 95.352 84.414 95.352C85.368 95.352 86.151 95.136 86.763 94.704C87.375 94.272 87.681 93.624 87.681 92.76C87.681 92.364 87.591 92.004 87.411 91.68C87.249 91.356 86.988 91.059 86.628 90.789C86.286 90.501 85.953 90.267 85.629 90.087C85.305 89.889 84.882 89.655 84.36 89.385C83.856 89.097 83.469 88.872 83.199 88.71C82.569 88.314 82.101 88.017 81.795 87.819C81.489 87.603 81.093 87.288 80.607 86.874C80.139 86.46 79.797 86.028 79.581 85.578C79.365 85.128 79.257 84.642 79.257 84.12C79.257 83.058 79.743 82.095 80.715 81.231C81.687 80.367 82.776 79.935 83.982 79.935C84.504 79.935 85.152 80.07 85.926 80.34C86.7 80.61 87.141 80.745 87.249 80.745C87.465 80.745 87.573 80.565 87.573 80.205H88.194L88.464 83.634H87.87C87.762 82.842 87.366 82.185 86.682 81.663C85.998 81.123 85.107 80.853 84.009 80.853C83.181 80.853 82.515 81.123 82.011 81.663C81.525 82.185 81.282 82.716 81.282 83.256C81.282 83.598 81.363 83.922 81.525 84.228C81.687 84.516 81.939 84.786 82.281 85.038C82.623 85.29 82.947 85.515 83.253 85.713C83.559 85.893 83.964 86.118 84.468 86.388C84.99 86.658 85.386 86.874 85.656 87.036C86.394 87.486 86.925 87.819 87.249 88.035C87.573 88.251 87.987 88.584 88.491 89.034C89.013 89.484 89.373 89.952 89.571 90.438C89.787 90.906 89.895 91.428 89.895 92.004C89.895 93.336 89.355 94.38 88.275 95.136C87.195 95.892 85.962 96.27 84.576 96.27ZM97.4696 96.27C96.5876 96.27 95.6876 96.135 94.7696 95.865C93.8516 95.595 93.3746 95.46 93.3386 95.46C93.2306 95.46 93.1046 95.514 92.9606 95.622C92.8166 95.73 92.7446 95.856 92.7446 96H92.1236V92.247H92.7176C92.9156 93.327 93.4466 94.119 94.3106 94.623C95.1926 95.109 96.1916 95.352 97.3076 95.352C98.2616 95.352 99.0446 95.136 99.6566 94.704C100.269 94.272 100.575 93.624 100.575 92.76C100.575 92.364 100.485 92.004 100.305 91.68C100.143 91.356 99.8816 91.059 99.5216 90.789C99.1796 90.501 98.8466 90.267 98.5226 90.087C98.1986 89.889 97.7756 89.655 97.2536 89.385C96.7496 89.097 96.3626 88.872 96.0926 88.71C95.4626 88.314 94.9946 88.017 94.6886 87.819C94.3826 87.603 93.9866 87.288 93.5006 86.874C93.0326 86.46 92.6906 86.028 92.4746 85.578C92.2586 85.128 92.1506 84.642 92.1506 84.12C92.1506 83.058 92.6366 82.095 93.6086 81.231C94.5806 80.367 95.6696 79.935 96.8756 79.935C97.3976 79.935 98.0456 80.07 98.8196 80.34C99.5936 80.61 100.035 80.745 100.143 80.745C100.359 80.745 100.467 80.565 100.467 80.205H101.088L101.358 83.634H100.764C100.656 82.842 100.26 82.185 99.5756 81.663C98.8916 81.123 98.0006 80.853 96.9026 80.853C96.0746 80.853 95.4086 81.123 94.9046 81.663C94.4186 82.185 94.1756 82.716 94.1756 83.256C94.1756 83.598 94.2566 83.922 94.4186 84.228C94.5806 84.516 94.8326 84.786 95.1746 85.038C95.5166 85.29 95.8406 85.515 96.1466 85.713C96.4526 85.893 96.8576 86.118 97.3616 86.388C97.8836 86.658 98.2796 86.874 98.5496 87.036C99.2876 87.486 99.8186 87.819 100.143 88.035C100.467 88.251 100.881 88.584 101.385 89.034C101.907 89.484 102.267 89.952 102.465 90.438C102.681 90.906 102.789 91.428 102.789 92.004C102.789 93.336 102.249 94.38 101.169 95.136C100.089 95.892 98.8556 96.27 97.4696 96.27Z"/>
</mask>
<path d="M12.4829 96H0.818863L9.40486 81.015H2.84386C2.48386 81.177 2.30386 81.744 2.30386 82.716H1.73686V80.205H12.6179L4.03186 95.19H11.3759C11.9339 94.956 12.3479 94.362 12.6179 93.408H13.1849L12.4829 96ZM22.9319 96V95.433C23.7599 95.433 24.2819 95.325 24.4979 95.109L22.9859 90.978H17.8019L16.3979 94.947C16.5779 95.271 17.1359 95.433 18.0719 95.433V96H13.6439V95.433C14.6519 95.433 15.2189 95.244 15.3449 94.866L20.5829 80.205H21.8789L27.1169 94.866C27.2429 95.244 27.8189 95.433 28.8449 95.433V96H22.9319ZM20.3669 83.796L18.1259 90.087H22.6619L20.3669 83.796ZM37.7616 80.853C36.2136 80.853 34.8816 81.582 33.7656 83.04C32.6496 84.48 32.0916 86.226 32.0916 88.278C32.0916 89.52 32.2536 90.618 32.5776 91.572C32.9016 92.526 33.3336 93.273 33.8736 93.813C34.4136 94.335 34.9806 94.722 35.5746 94.974C36.1686 95.226 36.7716 95.352 37.3836 95.352C38.3916 95.352 39.3456 95.181 40.2456 94.839V89.304C40.0836 88.944 39.5166 88.764 38.5446 88.764V88.197H44.4306V88.764C43.4586 88.764 42.8916 88.944 42.7296 89.304V93.84C42.4236 94.416 41.8026 94.965 40.8666 95.487C39.9486 96.009 38.7696 96.27 37.3296 96.27C34.9176 96.27 32.9736 95.487 31.4976 93.921C30.0216 92.355 29.2836 90.492 29.2836 88.332C29.2836 85.83 30.1296 83.805 31.8216 82.257C33.5136 80.709 35.4846 79.935 37.7346 79.935C38.2566 79.935 38.9046 80.07 39.6786 80.34C40.4526 80.61 40.8936 80.745 41.0016 80.745C41.2176 80.745 41.3256 80.565 41.3256 80.205H41.9466L42.2166 83.634H41.6226C41.5146 82.842 41.1186 82.185 40.4346 81.663C39.7506 81.123 38.8596 80.853 37.7616 80.853ZM46.0017 96V95.433C46.9737 95.433 47.5407 95.253 47.7027 94.893V81.312C47.5407 80.952 46.9737 80.772 46.0017 80.772V80.205H52.1037C54.3357 80.205 56.0277 80.61 57.1797 81.42C58.3317 82.23 58.9077 83.157 58.9077 84.201C58.9077 85.191 58.6107 86.064 58.0167 86.82C57.4227 87.558 56.5407 88.098 55.3707 88.44L58.9617 94.866C59.1417 95.244 59.7357 95.433 60.7437 95.433V96H59.5827C58.3227 96 57.5037 95.928 57.1257 95.784C56.7477 95.64 56.3697 95.244 55.9917 94.596L52.7247 88.818H50.1867V94.893C50.3487 95.253 50.9157 95.433 51.8877 95.433V96H46.0017ZM50.1867 81.123V87.9H52.4277C53.8677 87.9 54.8577 87.621 55.3977 87.063C55.9377 86.505 56.2077 85.56 56.2077 84.228C56.2077 83.238 55.9017 82.473 55.2897 81.933C54.6957 81.393 53.6337 81.123 52.1037 81.123H50.1867ZM64.4442 87.9C64.4442 89.088 64.6062 90.231 64.9302 91.329C65.2722 92.409 65.8212 93.354 66.5772 94.164C67.3512 94.956 68.2692 95.352 69.3312 95.352C70.3932 95.352 71.2842 94.974 72.0042 94.218C72.7422 93.462 73.2552 92.58 73.5432 91.572C73.8492 90.546 74.0022 89.466 74.0022 88.332C74.0022 87.162 73.8312 86.028 73.4892 84.93C73.1472 83.814 72.5892 82.86 71.8152 82.068C71.0592 81.258 70.1592 80.853 69.1152 80.853C68.3052 80.853 67.5852 81.069 66.9552 81.501C66.3432 81.933 65.8572 82.509 65.4972 83.229C65.1552 83.931 64.8942 84.678 64.7142 85.47C64.5342 86.262 64.4442 87.072 64.4442 87.9ZM61.7442 88.116C61.7442 85.866 62.4462 83.94 63.8502 82.338C65.2542 80.736 67.0452 79.935 69.2232 79.935C71.4012 79.935 73.1922 80.736 74.5962 82.338C76.0002 83.94 76.7022 85.866 76.7022 88.116C76.7022 90.366 75.9912 92.292 74.5692 93.894C73.1652 95.478 71.3832 96.27 69.2232 96.27C67.0272 96.27 65.2272 95.478 63.8232 93.894C62.4372 92.31 61.7442 90.384 61.7442 88.116ZM84.576 96.27C83.694 96.27 82.794 96.135 81.876 95.865C80.958 95.595 80.481 95.46 80.445 95.46C80.337 95.46 80.211 95.514 80.067 95.622C79.923 95.73 79.851 95.856 79.851 96H79.23V92.247H79.824C80.022 93.327 80.553 94.119 81.417 94.623C82.299 95.109 83.298 95.352 84.414 95.352C85.368 95.352 86.151 95.136 86.763 94.704C87.375 94.272 87.681 93.624 87.681 92.76C87.681 92.364 87.591 92.004 87.411 91.68C87.249 91.356 86.988 91.059 86.628 90.789C86.286 90.501 85.953 90.267 85.629 90.087C85.305 89.889 84.882 89.655 84.36 89.385C83.856 89.097 83.469 88.872 83.199 88.71C82.569 88.314 82.101 88.017 81.795 87.819C81.489 87.603 81.093 87.288 80.607 86.874C80.139 86.46 79.797 86.028 79.581 85.578C79.365 85.128 79.257 84.642 79.257 84.12C79.257 83.058 79.743 82.095 80.715 81.231C81.687 80.367 82.776 79.935 83.982 79.935C84.504 79.935 85.152 80.07 85.926 80.34C86.7 80.61 87.141 80.745 87.249 80.745C87.465 80.745 87.573 80.565 87.573 80.205H88.194L88.464 83.634H87.87C87.762 82.842 87.366 82.185 86.682 81.663C85.998 81.123 85.107 80.853 84.009 80.853C83.181 80.853 82.515 81.123 82.011 81.663C81.525 82.185 81.282 82.716 81.282 83.256C81.282 83.598 81.363 83.922 81.525 84.228C81.687 84.516 81.939 84.786 82.281 85.038C82.623 85.29 82.947 85.515 83.253 85.713C83.559 85.893 83.964 86.118 84.468 86.388C84.99 86.658 85.386 86.874 85.656 87.036C86.394 87.486 86.925 87.819 87.249 88.035C87.573 88.251 87.987 88.584 88.491 89.034C89.013 89.484 89.373 89.952 89.571 90.438C89.787 90.906 89.895 91.428 89.895 92.004C89.895 93.336 89.355 94.38 88.275 95.136C87.195 95.892 85.962 96.27 84.576 96.27ZM97.4696 96.27C96.5876 96.27 95.6876 96.135 94.7696 95.865C93.8516 95.595 93.3746 95.46 93.3386 95.46C93.2306 95.46 93.1046 95.514 92.9606 95.622C92.8166 95.73 92.7446 95.856 92.7446 96H92.1236V92.247H92.7176C92.9156 93.327 93.4466 94.119 94.3106 94.623C95.1926 95.109 96.1916 95.352 97.3076 95.352C98.2616 95.352 99.0446 95.136 99.6566 94.704C100.269 94.272 100.575 93.624 100.575 92.76C100.575 92.364 100.485 92.004 100.305 91.68C100.143 91.356 99.8816 91.059 99.5216 90.789C99.1796 90.501 98.8466 90.267 98.5226 90.087C98.1986 89.889 97.7756 89.655 97.2536 89.385C96.7496 89.097 96.3626 88.872 96.0926 88.71C95.4626 88.314 94.9946 88.017 94.6886 87.819C94.3826 87.603 93.9866 87.288 93.5006 86.874C93.0326 86.46 92.6906 86.028 92.4746 85.578C92.2586 85.128 92.1506 84.642 92.1506 84.12C92.1506 83.058 92.6366 82.095 93.6086 81.231C94.5806 80.367 95.6696 79.935 96.8756 79.935C97.3976 79.935 98.0456 80.07 98.8196 80.34C99.5936 80.61 100.035 80.745 100.143 80.745C100.359 80.745 100.467 80.565 100.467 80.205H101.088L101.358 83.634H100.764C100.656 82.842 100.26 82.185 99.5756 81.663C98.8916 81.123 98.0006 80.853 96.9026 80.853C96.0746 80.853 95.4086 81.123 94.9046 81.663C94.4186 82.185 94.1756 82.716 94.1756 83.256C94.1756 83.598 94.2566 83.922 94.4186 84.228C94.5806 84.516 94.8326 84.786 95.1746 85.038C95.5166 85.29 95.8406 85.515 96.1466 85.713C96.4526 85.893 96.8576 86.118 97.3616 86.388C97.8836 86.658 98.2796 86.874 98.5496 87.036C99.2876 87.486 99.8186 87.819 100.143 88.035C100.467 88.251 100.881 88.584 101.385 89.034C101.907 89.484 102.267 89.952 102.465 90.438C102.681 90.906 102.789 91.428 102.789 92.004C102.789 93.336 102.249 94.38 101.169 95.136C100.089 95.892 98.8556 96.27 97.4696 96.27Z" fill="#FF9446"/>
<path d="M12.4829 96V97H13.2481L13.4481 96.2614L12.4829 96ZM0.818863 96L-0.048802 95.5029L-0.906628 97H0.818863V96ZM9.40486 81.015L10.2725 81.5121L11.1304 80.015H9.40486V81.015ZM2.84386 81.015V80.015H2.62923L2.4335 80.1031L2.84386 81.015ZM2.30386 82.716V83.716H3.30386V82.716H2.30386ZM1.73686 82.716H0.736863V83.716H1.73686V82.716ZM1.73686 80.205V79.205H0.736863V80.205H1.73686ZM12.6179 80.205L13.4855 80.7021L14.3434 79.205H12.6179V80.205ZM4.03186 95.19L3.1642 94.6929L2.30637 96.19H4.03186V95.19ZM11.3759 95.19V96.19H11.5771L11.7626 96.1122L11.3759 95.19ZM12.6179 93.408V92.408H11.8616L11.6557 93.1357L12.6179 93.408ZM13.1849 93.408L14.1501 93.6694L14.4917 92.408H13.1849V93.408ZM12.4829 95H0.818863V97H12.4829V95ZM1.68653 96.4971L10.2725 81.5121L8.5372 80.5179L-0.048802 95.5029L1.68653 96.4971ZM9.40486 80.015H2.84386V82.015H9.40486V80.015ZM2.4335 80.1031C1.8864 80.3493 1.618 80.8425 1.48574 81.2592C1.35129 81.6827 1.30386 82.1837 1.30386 82.716H3.30386C3.30386 82.2763 3.34643 82.0078 3.39199 81.8643C3.43972 81.714 3.44133 81.8427 3.25423 81.9269L2.4335 80.1031ZM2.30386 81.716H1.73686V83.716H2.30386V81.716ZM2.73686 82.716V80.205H0.736863V82.716H2.73686ZM1.73686 81.205H12.6179V79.205H1.73686V81.205ZM11.7502 79.7078L3.1642 94.6929L4.89953 95.6871L13.4855 80.7021L11.7502 79.7078ZM4.03186 96.19H11.3759V94.19H4.03186V96.19ZM11.7626 96.1122C12.7403 95.7022 13.2795 94.7424 13.5801 93.6803L11.6557 93.1357C11.4163 93.9816 11.1274 94.2098 10.9891 94.2678L11.7626 96.1122ZM12.6179 94.408H13.1849V92.408H12.6179V94.408ZM12.2196 93.1466L11.5176 95.7386L13.4481 96.2614L14.1501 93.6694L12.2196 93.1466ZM22.9319 96H21.9319V97H22.9319V96ZM22.9319 95.433V94.433H21.9319V95.433H22.9319ZM24.4979 95.109L25.205 95.8161L25.6563 95.3647L25.4369 94.7653L24.4979 95.109ZM22.9859 90.978L23.9249 90.6343L23.6847 89.978H22.9859V90.978ZM17.8019 90.978V89.978H17.0949L16.8591 90.6445L17.8019 90.978ZM16.3979 94.947L15.4551 94.6135L15.3048 95.0385L15.5237 95.4326L16.3979 94.947ZM18.0719 95.433H19.0719V94.433H18.0719V95.433ZM18.0719 96V97H19.0719V96H18.0719ZM13.6439 96H12.6439V97H13.6439V96ZM13.6439 95.433V94.433H12.6439V95.433H13.6439ZM15.3449 94.866L14.4032 94.5296L14.3996 94.5396L14.3962 94.5498L15.3449 94.866ZM20.5829 80.205V79.205H19.8782L19.6412 79.8686L20.5829 80.205ZM21.8789 80.205L22.8206 79.8686L22.5835 79.205H21.8789V80.205ZM27.1169 94.866L28.0655 94.5498L28.0622 94.5396L28.0586 94.5296L27.1169 94.866ZM28.8449 95.433H29.8449V94.433H28.8449V95.433ZM28.8449 96V97H29.8449V96H28.8449ZM20.3669 83.796L21.3063 83.4533L20.3557 80.8474L19.4248 83.4604L20.3669 83.796ZM18.1259 90.087L17.1838 89.7514L16.7081 91.087H18.1259V90.087ZM22.6619 90.087V91.087H24.0911L23.6013 89.7443L22.6619 90.087ZM23.9319 96V95.433H21.9319V96H23.9319ZM22.9319 96.433C23.381 96.433 23.7934 96.4044 24.147 96.3313C24.4739 96.2636 24.8901 96.131 25.205 95.8161L23.7908 94.4019C23.8477 94.3449 23.8893 94.3295 23.8765 94.3351C23.865 94.3402 23.8243 94.3557 23.7418 94.3727C23.5734 94.4076 23.3107 94.433 22.9319 94.433V96.433ZM25.4369 94.7653L23.9249 90.6343L22.0468 91.3217L23.5588 95.4527L25.4369 94.7653ZM22.9859 89.978H17.8019V91.978H22.9859V89.978ZM16.8591 90.6445L15.4551 94.6135L17.3406 95.2805L18.7446 91.3115L16.8591 90.6445ZM15.5237 95.4326C15.7983 95.9269 16.2796 96.1578 16.6726 96.2718C17.0801 96.3902 17.5596 96.433 18.0719 96.433V94.433C17.6482 94.433 17.3806 94.3948 17.2302 94.3512C17.0651 94.3032 17.1775 94.2911 17.272 94.4614L15.5237 95.4326ZM17.0719 95.433V96H19.0719V95.433H17.0719ZM18.0719 95H13.6439V97H18.0719V95ZM14.6439 96V95.433H12.6439V96H14.6439ZM13.6439 96.433C14.1922 96.433 14.7096 96.3839 15.1413 96.2399C15.5687 96.0975 16.0888 95.7965 16.2935 95.1822L14.3962 94.5498C14.4749 94.3135 14.6485 94.296 14.5089 94.3426C14.3737 94.3876 14.1035 94.433 13.6439 94.433V96.433ZM16.2866 95.2024L21.5246 80.5414L19.6412 79.8686L14.4032 94.5296L16.2866 95.2024ZM20.5829 81.205H21.8789V79.205H20.5829V81.205ZM20.9372 80.5414L26.1752 95.2024L28.0586 94.5296L22.8206 79.8686L20.9372 80.5414ZM26.1682 95.1822C26.375 95.8028 26.9048 96.1014 27.3316 96.2414C27.7662 96.384 28.2886 96.433 28.8449 96.433V94.433C28.3752 94.433 28.0966 94.3875 27.9551 94.3411C27.8059 94.2921 27.9847 94.3072 28.0655 94.5498L26.1682 95.1822ZM27.8449 95.433V96H29.8449V95.433H27.8449ZM28.8449 95H22.9319V97H28.8449V95ZM19.4248 83.4604L17.1838 89.7514L19.0679 90.4226L21.3089 84.1316L19.4248 83.4604ZM18.1259 91.087H22.6619V89.087H18.1259V91.087ZM23.6013 89.7443L21.3063 83.4533L19.4274 84.1387L21.7224 90.4297L23.6013 89.7443ZM33.7656 83.04L34.556 83.6526L34.5597 83.6478L33.7656 83.04ZM32.5776 91.572L31.6307 91.8936V91.8936L32.5776 91.572ZM33.8736 93.813L33.1665 94.5201L33.1725 94.5261L33.1786 94.532L33.8736 93.813ZM35.5746 94.974L35.1841 95.8946L35.5746 94.974ZM40.2456 94.839L40.6008 95.7738L41.2456 95.5288V94.839H40.2456ZM40.2456 89.304H41.2456V89.0894L41.1575 88.8936L40.2456 89.304ZM38.5446 88.764H37.5446V89.764H38.5446V88.764ZM38.5446 88.197V87.197H37.5446V88.197H38.5446ZM44.4306 88.197H45.4306V87.197H44.4306V88.197ZM44.4306 88.764V89.764H45.4306V88.764H44.4306ZM42.7296 89.304L41.8177 88.8936L41.7296 89.0894V89.304H42.7296ZM42.7296 93.84L43.6127 94.3092L43.7296 94.0891V93.84H42.7296ZM40.8666 95.487L40.3795 94.6136L40.3723 94.6177L40.8666 95.487ZM31.4976 93.921L32.2253 93.2351L31.4976 93.921ZM31.8216 82.257L32.4966 82.9948L31.8216 82.257ZM39.6786 80.34L40.008 79.3958L40.008 79.3958L39.6786 80.34ZM41.3256 80.205V79.205H40.3256V80.205H41.3256ZM41.9466 80.205L42.9435 80.1265L42.871 79.205H41.9466V80.205ZM42.2166 83.634V84.634H43.2985L43.2135 83.5555L42.2166 83.634ZM41.6226 83.634L40.6318 83.7691L40.7497 84.634H41.6226V83.634ZM40.4346 81.663L39.815 82.4479L39.8214 82.453L39.8279 82.458L40.4346 81.663ZM37.7616 79.853C35.8425 79.853 34.2372 80.7787 32.9715 82.4322L34.5597 83.6478C35.5261 82.3853 36.5847 81.853 37.7616 81.853V79.853ZM32.9752 82.4274C31.7063 84.0647 31.0916 86.0337 31.0916 88.278H33.0916C33.0916 86.4183 33.5929 84.8953 34.556 83.6526L32.9752 82.4274ZM31.0916 88.278C31.0916 89.6049 31.2645 90.8151 31.6307 91.8936L33.5245 91.2504C33.2428 90.4209 33.0916 89.4351 33.0916 88.278H31.0916ZM31.6307 91.8936C31.9889 92.9483 32.4892 93.8428 33.1665 94.5201L34.5807 93.1059C34.1781 92.7032 33.8143 92.1037 33.5245 91.2504L31.6307 91.8936ZM33.1786 94.532C33.7926 95.1255 34.4602 95.5875 35.1841 95.8946L35.9652 94.0534C35.5011 93.8565 35.0346 93.5445 34.5686 93.094L33.1786 94.532ZM35.1841 95.8946C35.8948 96.1961 36.6302 96.352 37.3836 96.352V94.352C36.913 94.352 36.4425 94.2559 35.9652 94.0534L35.1841 95.8946ZM37.3836 96.352C38.5072 96.352 39.5821 96.1609 40.6008 95.7738L39.8904 93.9042C39.1091 94.2011 38.276 94.352 37.3836 94.352V96.352ZM41.2456 94.839V89.304H39.2456V94.839H41.2456ZM41.1575 88.8936C40.9113 88.3465 40.4181 88.0781 40.0014 87.9459C39.5779 87.8114 39.077 87.764 38.5446 87.764V89.764C38.9843 89.764 39.2528 89.8066 39.3963 89.8521C39.5466 89.8999 39.4179 89.9015 39.3337 89.7144L41.1575 88.8936ZM39.5446 88.764V88.197H37.5446V88.764H39.5446ZM38.5446 89.197H44.4306V87.197H38.5446V89.197ZM43.4306 88.197V88.764H45.4306V88.197H43.4306ZM44.4306 87.764C43.8983 87.764 43.3973 87.8114 42.9738 87.9459C42.5572 88.0781 42.0639 88.3465 41.8177 88.8936L43.6415 89.7144C43.5573 89.9015 43.4286 89.8999 43.5789 89.8521C43.7224 89.8066 43.991 89.764 44.4306 89.764V87.764ZM41.7296 89.304V93.84H43.7296V89.304H41.7296ZM41.8465 93.3708C41.6719 93.6996 41.2449 94.1311 40.3795 94.6136L41.3537 96.3604C42.3604 95.7989 43.1754 95.1324 43.6127 94.3092L41.8465 93.3708ZM40.3723 94.6177C39.6499 95.0285 38.6567 95.27 37.3296 95.27V97.27C38.8826 97.27 40.2473 96.9895 41.3609 96.3563L40.3723 94.6177ZM37.3296 95.27C35.1564 95.27 33.4886 94.5754 32.2253 93.2351L30.7699 94.6069C32.4586 96.3986 34.6789 97.27 37.3296 97.27V95.27ZM32.2253 93.2351C30.9249 91.8554 30.2836 90.2381 30.2836 88.332H28.2836C28.2836 90.7459 29.1183 92.8546 30.7699 94.6069L32.2253 93.2351ZM30.2836 88.332C30.2836 86.0821 31.0318 84.3349 32.4966 82.9948L31.1466 81.5192C29.2274 83.2751 28.2836 85.5779 28.2836 88.332H30.2836ZM32.4966 82.9948C34.0082 81.6119 35.7397 80.935 37.7346 80.935V78.935C35.2295 78.935 33.019 79.8061 31.1466 81.5192L32.4966 82.9948ZM37.7346 80.935C38.0993 80.935 38.6278 81.0325 39.3492 81.2842L40.008 79.3958C39.1814 79.1075 38.4139 78.935 37.7346 78.935V80.935ZM39.3492 81.2842C39.7406 81.4207 40.0584 81.5269 40.2971 81.5999C40.4156 81.6362 40.525 81.6675 40.6194 81.6908C40.6799 81.7056 40.8377 81.745 41.0016 81.745V79.745C41.0437 79.745 41.075 79.7481 41.0895 79.7497C41.1057 79.7515 41.1163 79.7534 41.1193 79.7539C41.1245 79.7548 41.1185 79.7539 41.097 79.7486C41.0541 79.7381 40.9846 79.7188 40.8826 79.6876C40.6803 79.6256 40.3906 79.5293 40.008 79.3958L39.3492 81.2842ZM41.0016 81.745C41.4484 81.745 41.8611 81.5263 42.1021 81.1245C42.2943 80.8041 42.3256 80.4524 42.3256 80.205H40.3256C40.3256 80.3176 40.3029 80.2359 40.3871 80.0955C40.4382 80.0104 40.5254 79.9106 40.6577 79.8371C40.7887 79.7643 40.914 79.745 41.0016 79.745V81.745ZM41.3256 81.205H41.9466V79.205H41.3256V81.205ZM40.9497 80.2835L41.2197 83.7125L43.2135 83.5555L42.9435 80.1265L40.9497 80.2835ZM42.2166 82.634H41.6226V84.634H42.2166V82.634ZM42.6134 83.4989C42.4668 82.4235 41.9178 81.537 41.0413 80.868L39.8279 82.458C40.3194 82.833 40.5624 83.2605 40.6318 83.7691L42.6134 83.4989ZM41.0543 80.8781C40.1521 80.1659 39.0249 79.853 37.7616 79.853V81.853C38.6943 81.853 39.3491 82.0801 39.815 82.4479L41.0543 80.8781ZM46.0017 96H45.0017V97H46.0017V96ZM46.0017 95.433V94.433H45.0017V95.433H46.0017ZM47.7027 94.893L48.6146 95.3034L48.7027 95.1076V94.893H47.7027ZM47.7027 81.312H48.7027V81.0974L48.6146 80.9016L47.7027 81.312ZM46.0017 80.772H45.0017V81.772H46.0017V80.772ZM46.0017 80.205V79.205H45.0017V80.205H46.0017ZM57.1797 81.42L56.6045 82.238L57.1797 81.42ZM58.0167 86.82L58.7957 87.4471L58.803 87.4378L58.0167 86.82ZM55.3707 88.44L55.0901 87.4802L53.8855 87.8323L54.4977 88.9278L55.3707 88.44ZM58.9617 94.866L59.8645 94.4361L59.8505 94.4066L59.8346 94.3782L58.9617 94.866ZM60.7437 95.433H61.7437V94.433H60.7437V95.433ZM60.7437 96V97H61.7437V96H60.7437ZM55.9917 94.596L55.1211 95.0882L55.1279 95.0999L55.9917 94.596ZM52.7247 88.818L53.5952 88.3258L53.308 87.818H52.7247V88.818ZM50.1867 88.818V87.818H49.1867V88.818H50.1867ZM50.1867 94.893H49.1867V95.1076L49.2748 95.3034L50.1867 94.893ZM51.8877 95.433H52.8877V94.433H51.8877V95.433ZM51.8877 96V97H52.8877V96H51.8877ZM50.1867 81.123V80.123H49.1867V81.123H50.1867ZM50.1867 87.9H49.1867V88.9H50.1867V87.9ZM55.3977 87.063L54.6791 86.3676L55.3977 87.063ZM55.2897 81.933L54.617 82.6729L54.6225 82.6779L54.6281 82.6828L55.2897 81.933ZM47.0017 96V95.433H45.0017V96H47.0017ZM46.0017 96.433C46.534 96.433 47.035 96.3856 47.4585 96.2511C47.8751 96.1189 48.3684 95.8505 48.6146 95.3034L46.7908 94.4826C46.875 94.2955 47.0037 94.2971 46.8533 94.3449C46.7099 94.3904 46.4413 94.433 46.0017 94.433V96.433ZM48.7027 94.893V81.312H46.7027V94.893H48.7027ZM48.6146 80.9016C48.3684 80.3545 47.8751 80.0861 47.4585 79.9539C47.035 79.8194 46.534 79.772 46.0017 79.772V81.772C46.4413 81.772 46.7099 81.8146 46.8533 81.8601C47.0037 81.9079 46.875 81.9095 46.7908 81.7224L48.6146 80.9016ZM47.0017 80.772V80.205H45.0017V80.772H47.0017ZM46.0017 81.205H52.1037V79.205H46.0017V81.205ZM52.1037 81.205C54.2409 81.205 55.6934 81.5974 56.6045 82.238L57.7549 80.602C56.362 79.6226 54.4304 79.205 52.1037 79.205V81.205ZM56.6045 82.238C57.5917 82.9322 57.9077 83.5896 57.9077 84.201H59.9077C59.9077 82.7244 59.0716 81.5278 57.7549 80.602L56.6045 82.238ZM57.9077 84.201C57.9077 84.9741 57.6815 85.6279 57.2304 86.2022L58.803 87.4378C59.5398 86.5001 59.9077 85.4079 59.9077 84.201H57.9077ZM57.2377 86.193C56.8042 86.7315 56.1199 87.1791 55.0901 87.4802L55.6512 89.3998C56.9614 89.0169 58.0412 88.3845 58.7957 87.447L57.2377 86.193ZM54.4977 88.9278L58.0887 95.3538L59.8346 94.3782L56.2436 87.9522L54.4977 88.9278ZM58.0588 95.2959C58.3156 95.8351 58.8074 96.1069 59.239 96.2442C59.6755 96.3831 60.192 96.433 60.7437 96.433V94.433C60.2874 94.433 60.0028 94.3884 59.8454 94.3383C59.6829 94.2866 59.7878 94.2749 59.8645 94.4361L58.0588 95.2959ZM59.7437 95.433V96H61.7437V95.433H59.7437ZM60.7437 95H59.5827V97H60.7437V95ZM59.5827 95C58.9683 95 58.4804 94.9823 58.111 94.9498C57.7192 94.9154 57.5351 94.8699 57.4817 94.8495L56.7697 96.7185C57.0942 96.8421 57.5087 96.9046 57.9359 96.9422C58.3854 96.9817 58.937 97 59.5827 97V95ZM57.4817 94.8495C57.4353 94.8318 57.2044 94.6903 56.8555 94.0921L55.1279 95.0999C55.5349 95.7977 56.0601 96.4482 56.7697 96.7185L57.4817 94.8495ZM56.8622 94.1038L53.5952 88.3258L51.8542 89.3102L55.1212 95.0882L56.8622 94.1038ZM52.7247 87.818H50.1867V89.818H52.7247V87.818ZM49.1867 88.818V94.893H51.1867V88.818H49.1867ZM49.2748 95.3034C49.521 95.8505 50.0142 96.1189 50.4308 96.2511C50.8544 96.3856 51.3553 96.433 51.8877 96.433V94.433C51.448 94.433 51.1795 94.3904 51.036 94.3449C50.8856 94.2971 51.0144 94.2955 51.0986 94.4826L49.2748 95.3034ZM50.8877 95.433V96H52.8877V95.433H50.8877ZM51.8877 95H46.0017V97H51.8877V95ZM49.1867 81.123V87.9H51.1867V81.123H49.1867ZM50.1867 88.9H52.4277V86.9H50.1867V88.9ZM52.4277 88.9C53.9291 88.9 55.28 88.6225 56.1163 87.7584L54.6791 86.3676C54.4353 86.6195 53.8062 86.9 52.4277 86.9V88.9ZM56.1163 87.7584C56.9289 86.9187 57.2077 85.647 57.2077 84.228H55.2077C55.2077 85.473 54.9465 86.0913 54.6791 86.3676L56.1163 87.7584ZM57.2077 84.228C57.2077 83.0176 56.8237 81.953 55.9513 81.1832L54.6281 82.6828C54.9796 82.993 55.2077 83.4584 55.2077 84.228H57.2077ZM55.9623 81.1931C55.0774 80.3885 53.6848 80.123 52.1037 80.123V82.123C53.5825 82.123 54.314 82.3975 54.617 82.6729L55.9623 81.1931ZM52.1037 80.123H50.1867V82.123H52.1037V80.123ZM64.9302 91.329L63.971 91.612L63.9738 91.6215L63.9768 91.6309L64.9302 91.329ZM66.5772 94.164L65.8461 94.8463L65.8539 94.8547L65.862 94.8629L66.5772 94.164ZM72.0042 94.218L71.2885 93.5194L71.28 93.5283L72.0042 94.218ZM73.5432 91.572L72.5848 91.2862L72.5816 91.2973L73.5432 91.572ZM73.4892 84.93L72.533 85.223L72.5344 85.2274L73.4892 84.93ZM71.8152 82.068L71.0841 82.7503L71.0919 82.7587L71.1 82.7669L71.8152 82.068ZM66.9552 81.501L66.3896 80.6762L66.3785 80.684L66.9552 81.501ZM65.4972 83.229L64.6027 82.7818L64.5982 82.791L65.4972 83.229ZM64.7141 85.47L65.6893 85.6916L64.7141 85.47ZM63.8502 82.338L63.0981 81.6789L63.8502 82.338ZM74.5962 82.338L75.3482 81.6789L74.5962 82.338ZM74.5692 93.894L73.8213 93.2302L73.8208 93.2307L74.5692 93.894ZM63.8232 93.894L63.0706 94.5525L63.0748 94.5573L63.8232 93.894ZM63.4442 87.9C63.4442 89.1802 63.6189 90.4187 63.971 91.612L65.8893 91.046C65.5934 90.0433 65.4442 88.9958 65.4442 87.9H63.4442ZM63.9768 91.6309C64.3627 92.8494 64.9863 93.9251 65.8461 94.8463L67.3082 93.4817C66.656 92.7829 66.1816 91.9686 65.8835 91.0271L63.9768 91.6309ZM65.862 94.8629C66.8151 95.8383 67.9873 96.352 69.3312 96.352V94.352C68.551 94.352 67.8872 94.0737 67.2923 93.4651L65.862 94.8629ZM69.3312 96.352C70.6615 96.352 71.8159 95.8657 72.7283 94.9077L71.28 93.5283C70.7524 94.0823 70.1248 94.352 69.3312 94.352V96.352ZM72.7197 94.9165C73.5726 94.0428 74.1707 93.0155 74.5047 91.8467L72.5816 91.2973C72.3396 92.1445 71.9117 92.8812 71.2886 93.5195L72.7197 94.9165ZM74.5014 91.8578C74.8367 90.7337 75.0022 89.5571 75.0022 88.332H73.0022C73.0022 89.3749 72.8616 90.3583 72.5849 91.2862L74.5014 91.8578ZM75.0022 88.332C75.0022 87.0629 74.8164 85.8286 74.4439 84.6326L72.5344 85.2274C72.8459 86.2274 73.0022 87.2611 73.0022 88.332H75.0022ZM74.4453 84.637C74.0591 83.3769 73.4219 82.2814 72.5303 81.3691L71.1 82.7669C71.7564 83.4386 72.2352 84.2511 72.533 85.223L74.4453 84.637ZM72.5462 81.3857C71.6141 80.387 70.4548 79.853 69.1152 79.853V81.853C69.8635 81.853 70.5042 82.129 71.0841 82.7503L72.5462 81.3857ZM69.1152 79.853C68.1161 79.853 67.1964 80.123 66.3896 80.6763L67.5207 82.3257C67.9739 82.015 68.4942 81.853 69.1152 81.853V79.853ZM66.3785 80.684C65.6217 81.2182 65.0309 81.9255 64.6027 82.7818L66.3916 83.6762C66.6834 83.0925 67.0646 82.6478 67.5318 82.318L66.3785 80.684ZM64.5982 82.791C64.2212 83.5647 63.9353 84.3846 63.739 85.2484L65.6893 85.6916C65.853 84.9714 66.0891 84.2973 66.3961 83.667L64.5982 82.791ZM63.739 85.2484C63.5422 86.1145 63.4442 86.9989 63.4442 87.9H65.4442C65.4442 87.1451 65.5261 86.4095 65.6893 85.6916L63.739 85.2484ZM62.7442 88.116C62.7442 86.0936 63.3676 84.4059 64.6022 82.9971L63.0981 81.6789C61.5247 83.4741 60.7442 85.6384 60.7442 88.116H62.7442ZM64.6022 82.9971C65.8115 81.6173 67.3258 80.935 69.2232 80.935V78.935C66.7645 78.935 64.6968 79.8547 63.0981 81.6789L64.6022 82.9971ZM69.2232 80.935C71.1205 80.935 72.6348 81.6173 73.8441 82.9971L75.3482 81.6789C73.7495 79.8547 71.6818 78.935 69.2232 78.935V80.935ZM73.8441 82.9971C75.0787 84.4059 75.7022 86.0936 75.7022 88.116H77.7022C77.7022 85.6384 76.9216 83.4741 75.3482 81.6789L73.8441 82.9971ZM75.7022 88.116C75.7022 90.1348 75.0721 91.821 73.8213 93.2302L75.317 94.5578C76.9102 92.763 77.7022 90.5972 77.7022 88.116H75.7022ZM73.8208 93.2307C72.611 94.5956 71.1037 95.27 69.2232 95.27V97.27C71.6626 97.27 73.7193 96.3604 75.3175 94.5573L73.8208 93.2307ZM69.2232 95.27C67.3011 95.27 65.7778 94.5916 64.5715 93.2307L63.0748 94.5573C64.6766 96.3644 66.7532 97.27 69.2232 97.27V95.27ZM64.5757 93.2355C63.3621 91.8485 62.7442 90.1621 62.7442 88.116H60.7442C60.7442 90.6059 61.5122 92.7715 63.0706 94.5525L64.5757 93.2355ZM80.067 95.622L80.667 96.422L80.067 95.622ZM79.851 96V97H80.851V96H79.851ZM79.23 96H78.23V97H79.23V96ZM79.23 92.247V91.247H78.23V92.247H79.23ZM79.824 92.247L80.8076 92.0667L80.6574 91.247H79.824V92.247ZM81.417 94.623L80.9132 95.4868L80.9237 95.4929L80.9344 95.4988L81.417 94.623ZM86.763 94.704L87.3397 95.521L86.763 94.704ZM87.411 91.68L86.5166 92.1272L86.5263 92.1466L86.5369 92.1656L87.411 91.68ZM86.628 90.789L85.9839 91.5539L86.0055 91.5721L86.028 91.589L86.628 90.789ZM85.629 90.087L85.1076 90.9403L85.1253 90.9511L85.1434 90.9612L85.629 90.087ZM84.36 89.385L83.8639 90.2532L83.882 90.2636L83.9006 90.2732L84.36 89.385ZM83.199 88.71L82.6669 89.5566L82.6756 89.5622L82.6845 89.5675L83.199 88.71ZM81.795 87.819L81.2183 88.636L81.2348 88.6476L81.2518 88.6586L81.795 87.819ZM80.607 86.874L79.9445 87.623L79.9514 87.6292L79.9586 87.6352L80.607 86.874ZM79.581 85.578L78.6795 86.0107V86.0107L79.581 85.578ZM80.715 81.231L80.0507 80.4836L80.715 81.231ZM85.926 80.34L86.2554 79.3958V79.3958L85.926 80.34ZM87.573 80.205V79.205H86.573V80.205H87.573ZM88.194 80.205L89.1909 80.1265L89.1184 79.205H88.194V80.205ZM88.464 83.634V84.634H89.5459L89.4609 83.5555L88.464 83.634ZM87.87 83.634L86.8792 83.7691L86.9971 84.634H87.87V83.634ZM86.682 81.663L86.0624 82.4479L86.0688 82.453L86.0754 82.458L86.682 81.663ZM82.011 81.663L81.28 80.9807L81.2791 80.9816L82.011 81.663ZM81.525 84.228L80.6412 84.6959L80.6472 84.7072L80.6535 84.7183L81.525 84.228ZM82.281 85.038L81.6878 85.8431L82.281 85.038ZM83.253 85.713L82.7098 86.5526L82.7277 86.5641L82.746 86.5749L83.253 85.713ZM84.468 86.388L83.9958 87.2695L84.0022 87.2729L84.0086 87.2762L84.468 86.388ZM85.656 87.036L86.1767 86.1822L86.1705 86.1785L85.656 87.036ZM87.249 88.035L87.8037 87.2029L87.249 88.035ZM88.491 89.034L87.825 89.7799L87.8315 89.7857L87.8381 89.7914L88.491 89.034ZM89.571 90.438L88.6449 90.8153L88.6535 90.8364L88.6631 90.8571L89.571 90.438ZM88.275 95.136L87.7016 94.3168L88.275 95.136ZM84.576 95.27C83.7973 95.27 82.9923 95.151 82.1582 94.9056L81.5939 96.8244C82.5958 97.119 83.5908 97.27 84.576 97.27V95.27ZM82.1582 94.9056C81.6983 94.7704 81.3456 94.668 81.1021 94.599C80.9811 94.5648 80.8824 94.5375 80.8092 94.5182C80.7735 94.5088 80.737 94.4995 80.7041 94.4919C80.6882 94.4883 80.665 94.4831 80.639 94.4783C80.6382 94.4781 80.5505 94.46 80.445 94.46V96.46C80.3808 96.46 80.3317 96.4535 80.3181 96.4517C80.2976 96.449 80.2821 96.4462 80.2749 96.4449C80.2603 96.4422 80.2519 96.4402 80.2543 96.4407C80.258 96.4416 80.2718 96.4449 80.3002 96.4524C80.3553 96.4669 80.44 96.4902 80.5575 96.5235C80.7909 96.5895 81.1357 96.6896 81.5939 96.8244L82.1582 94.9056ZM80.445 94.46C80.0185 94.46 79.6791 94.6629 79.467 94.822L80.667 96.422C80.6939 96.4018 80.6923 96.4073 80.6634 96.4196C80.6342 96.4322 80.5576 96.46 80.445 96.46V94.46ZM79.467 94.822C79.141 95.0665 78.851 95.4631 78.851 96H80.851C80.851 96.1034 80.8229 96.2068 80.7733 96.2936C80.7273 96.374 80.6788 96.4132 80.667 96.422L79.467 94.822ZM79.851 95H79.23V97H79.851V95ZM80.23 96V92.247H78.23V96H80.23ZM79.23 93.247H79.824V91.247H79.23V93.247ZM78.8404 92.4273C79.0852 93.7626 79.7707 94.8204 80.9132 95.4868L81.9209 93.7592C81.3353 93.4176 80.9588 92.8914 80.8076 92.0667L78.8404 92.4273ZM80.9344 95.4988C81.9798 96.0748 83.1479 96.352 84.414 96.352V94.352C83.4482 94.352 82.6183 94.1432 81.8996 93.7472L80.9344 95.4988ZM84.414 96.352C85.518 96.352 86.518 96.101 87.3397 95.521L86.1863 93.887C85.784 94.171 85.2181 94.352 84.414 94.352V96.352ZM87.3397 95.521C88.2608 94.8708 88.681 93.8916 88.681 92.76H86.681C86.681 93.3564 86.4893 93.6732 86.1863 93.887L87.3397 95.521ZM88.681 92.76C88.681 92.2061 88.5534 91.6771 88.2852 91.1944L86.5369 92.1656C86.6287 92.3309 86.681 92.5219 86.681 92.76H88.681ZM88.3055 91.2328C88.0592 90.7404 87.6828 90.3301 87.228 89.989L86.028 91.589C86.2933 91.7879 86.4388 91.9716 86.5166 92.1272L88.3055 91.2328ZM87.2722 90.0241C86.8907 89.7028 86.505 89.4297 86.1147 89.2128L85.1434 90.9612C85.4011 91.1043 85.6814 91.2992 85.9839 91.5539L87.2722 90.0241ZM86.1505 89.2337C85.7984 89.0186 85.3525 88.7725 84.8195 88.4968L83.9006 90.2732C84.4116 90.5375 84.8116 90.7594 85.1076 90.9403L86.1505 89.2337ZM84.8562 88.5168C84.3541 88.2299 83.9744 88.009 83.7135 87.8525L82.6845 89.5675C82.9637 89.735 83.3579 89.9641 83.8639 90.2532L84.8562 88.5168ZM83.7312 87.8634C83.1019 87.4678 82.6385 87.1737 82.3383 86.9794L81.2518 88.6586C81.5635 88.8603 82.0361 89.1602 82.6669 89.5566L83.7312 87.8634ZM82.3717 87.002C82.1017 86.8114 81.732 86.5187 81.2555 86.1128L79.9586 87.6352C80.454 88.0573 80.8764 88.3946 81.2183 88.636L82.3717 87.002ZM81.2696 86.125C80.8772 85.7779 80.6282 85.4488 80.4826 85.1453L78.6795 86.0107C78.9658 86.6072 79.4008 87.1421 79.9445 87.623L81.2696 86.125ZM80.4826 85.1453C80.3344 84.8365 80.257 84.4992 80.257 84.12H78.257C78.257 84.7848 78.3957 85.4195 78.6795 86.0107L80.4826 85.1453ZM80.257 84.12C80.257 83.4065 80.5689 82.6988 81.3794 81.9784L80.0507 80.4836C78.9171 81.4912 78.257 82.7095 78.257 84.12H80.257ZM81.3794 81.9784C82.1839 81.2633 83.041 80.935 83.982 80.935V78.935C82.5111 78.935 81.1901 79.4707 80.0507 80.4836L81.3794 81.9784ZM83.982 80.935C84.3467 80.935 84.8753 81.0325 85.5967 81.2842L86.2554 79.3958C85.4288 79.1075 84.6613 78.935 83.982 78.935V80.935ZM85.5967 81.2842C85.988 81.4207 86.3058 81.5269 86.5446 81.5999C86.6631 81.6362 86.7724 81.6675 86.8668 81.6908C86.9273 81.7056 87.0851 81.745 87.249 81.745V79.745C87.2911 79.745 87.3224 79.7481 87.3369 79.7497C87.3532 79.7515 87.3637 79.7534 87.3667 79.7539C87.372 79.7548 87.3659 79.7539 87.3444 79.7486C87.3015 79.7381 87.232 79.7188 87.13 79.6876C86.9277 79.6256 86.638 79.5293 86.2554 79.3958L85.5967 81.2842ZM87.249 81.745C87.6958 81.745 88.1085 81.5263 88.3495 81.1245C88.5417 80.8041 88.573 80.4524 88.573 80.205H86.573C86.573 80.3176 86.5503 80.2359 86.6345 80.0955C86.6856 80.0104 86.7728 79.9106 86.9051 79.8371C87.0361 79.7643 87.1614 79.745 87.249 79.745V81.745ZM87.573 81.205H88.194V79.205H87.573V81.205ZM87.1971 80.2835L87.4671 83.7125L89.4609 83.5555L89.1909 80.1265L87.1971 80.2835ZM88.464 82.634H87.87V84.634H88.464V82.634ZM88.8609 83.4989C88.7142 82.4235 88.1652 81.537 87.2887 80.868L86.0754 82.458C86.5668 82.833 86.8098 83.2605 86.8792 83.7691L88.8609 83.4989ZM87.3017 80.8781C86.3995 80.1659 85.2723 79.853 84.009 79.853V81.853C84.9417 81.853 85.5965 82.0801 86.0624 82.4479L87.3017 80.8781ZM84.009 79.853C82.9409 79.853 81.997 80.2125 81.28 80.9807L82.7421 82.3453C83.0331 82.0335 83.4212 81.853 84.009 81.853V79.853ZM81.2791 80.9816C80.6775 81.6278 80.282 82.3907 80.282 83.256H82.282C82.282 83.0413 82.3726 82.7422 82.7429 82.3444L81.2791 80.9816ZM80.282 83.256C80.282 83.7632 80.4039 84.2476 80.6412 84.6959L82.4088 83.7601C82.3221 83.5964 82.282 83.4328 82.282 83.256H80.282ZM80.6535 84.7183C80.9017 85.1596 81.2631 85.5301 81.6878 85.8431L82.8742 84.2329C82.615 84.0419 82.4723 83.8724 82.3966 83.7377L80.6535 84.7183ZM81.6878 85.8431C82.0435 86.1052 82.3843 86.342 82.7098 86.5526L83.7963 84.8734C83.5098 84.688 83.2025 84.4748 82.8742 84.2329L81.6878 85.8431ZM82.746 86.5749C83.0682 86.7645 83.4862 86.9965 83.9958 87.2695L84.9402 85.5065C84.4418 85.2395 84.0498 85.0215 83.76 84.8511L82.746 86.5749ZM84.0086 87.2762C84.5249 87.5433 84.8988 87.7479 85.1415 87.8935L86.1705 86.1785C85.8732 86.0001 85.4551 85.7727 84.9275 85.4998L84.0086 87.2762ZM85.1354 87.8898C85.8723 88.3391 86.3884 88.6631 86.6943 88.8671L87.8037 87.2029C87.4616 86.9749 86.9158 86.6329 86.1766 86.1822L85.1354 87.8898ZM86.6943 88.8671C86.961 89.0448 87.3346 89.3421 87.825 89.7799L89.157 88.2881C88.6395 87.8259 88.1851 87.4572 87.8037 87.2029L86.6943 88.8671ZM87.8381 89.7914C88.2764 90.1693 88.5224 90.5144 88.6449 90.8153L90.4971 90.0607C90.2237 89.3896 89.7497 88.7987 89.144 88.2766L87.8381 89.7914ZM88.6631 90.8571C88.8117 91.179 88.895 91.5556 88.895 92.004H90.895C90.895 91.3004 90.7624 90.633 90.479 90.0189L88.6631 90.8571ZM88.895 92.004C88.895 93.0137 88.5109 93.7502 87.7016 94.3168L88.8485 95.9552C90.1991 95.0098 90.895 93.6583 90.895 92.004H88.895ZM87.7016 94.3168C86.7986 94.9489 85.768 95.27 84.576 95.27V97.27C86.156 97.27 87.5915 96.8351 88.8485 95.9552L87.7016 94.3168ZM92.9606 95.622L93.5606 96.422L92.9606 95.622ZM92.7446 96V97H93.7446V96H92.7446ZM92.1236 96H91.1236V97H92.1236V96ZM92.1236 92.247V91.247H91.1236V92.247H92.1236ZM92.7176 92.247L93.7012 92.0667L93.5509 91.247H92.7176V92.247ZM94.3106 94.623L93.8067 95.4868L93.8173 95.4929L93.828 95.4988L94.3106 94.623ZM99.6566 94.704L100.233 95.521L99.6566 94.704ZM100.305 91.68L99.4102 92.1272L99.4199 92.1466L99.4304 92.1656L100.305 91.68ZM99.5216 90.789L98.8774 91.5539L98.899 91.5721L98.9216 91.589L99.5216 90.789ZM98.5226 90.087L98.0011 90.9403L98.0188 90.9511L98.0369 90.9612L98.5226 90.087ZM97.2536 89.385L96.7574 90.2532L96.7756 90.2636L96.7942 90.2732L97.2536 89.385ZM96.0926 88.71L95.5604 89.5566L95.5692 89.5622L95.5781 89.5675L96.0926 88.71ZM94.6886 87.819L94.1119 88.636L94.1284 88.6476L94.1453 88.6586L94.6886 87.819ZM93.5006 86.874L92.838 87.623L92.845 87.6292L92.8521 87.6352L93.5006 86.874ZM92.4746 85.578L91.5731 86.0107V86.0107L92.4746 85.578ZM93.6086 81.231L92.9442 80.4836L93.6086 81.231ZM98.8196 80.34L99.149 79.3958V79.3958L98.8196 80.34ZM100.467 80.205V79.205H99.4666V80.205H100.467ZM101.088 80.205L102.084 80.1265L102.012 79.205H101.088V80.205ZM101.358 83.634V84.634H102.439L102.354 83.5555L101.358 83.634ZM100.764 83.634L99.7728 83.7691L99.8907 84.634H100.764V83.634ZM99.5756 81.663L98.9559 82.4479L98.9624 82.453L98.9689 82.458L99.5756 81.663ZM94.9046 81.663L94.1735 80.9807L94.1727 80.9816L94.9046 81.663ZM94.4186 84.228L93.5348 84.6959L93.5408 84.7072L93.547 84.7183L94.4186 84.228ZM95.1746 85.038L94.5814 85.8431L95.1746 85.038ZM96.1466 85.713L95.6033 86.5526L95.6212 86.5641L95.6396 86.5749L96.1466 85.713ZM97.3616 86.388L96.8894 87.2695L96.8957 87.2729L96.9022 87.2762L97.3616 86.388ZM98.5496 87.036L99.0702 86.1822L99.0641 86.1785L98.5496 87.036ZM100.143 88.035L100.697 87.2029L100.143 88.035ZM101.385 89.034L100.719 89.7799L100.725 89.7857L100.732 89.7914L101.385 89.034ZM102.465 90.438L101.538 90.8153L101.547 90.8364L101.557 90.8571L102.465 90.438ZM101.169 95.136L100.595 94.3168L101.169 95.136ZM97.4696 95.27C96.6908 95.27 95.8858 95.151 95.0518 94.9056L94.4874 96.8244C95.4893 97.119 96.4843 97.27 97.4696 97.27V95.27ZM95.0518 94.9056C94.5919 94.7704 94.2392 94.668 93.9957 94.599C93.8746 94.5648 93.7759 94.5375 93.7028 94.5182C93.6671 94.5088 93.6305 94.4995 93.5976 94.4919C93.5818 94.4883 93.5586 94.4831 93.5326 94.4783C93.5317 94.4781 93.4441 94.46 93.3386 94.46V96.46C93.2744 96.46 93.2253 96.4535 93.2117 96.4517C93.1911 96.449 93.1757 96.4462 93.1684 96.4449C93.1538 96.4422 93.1454 96.4402 93.1479 96.4407C93.1515 96.4416 93.1653 96.4449 93.1938 96.4524C93.2489 96.4669 93.3335 96.4902 93.451 96.5235C93.6845 96.5895 94.0293 96.6896 94.4874 96.8244L95.0518 94.9056ZM93.3386 94.46C92.9121 94.46 92.5727 94.6629 92.3606 94.822L93.5606 96.422C93.5875 96.4018 93.5859 96.4073 93.557 96.4196C93.5278 96.4322 93.4512 96.46 93.3386 96.46V94.46ZM92.3606 94.822C92.0346 95.0665 91.7446 95.4631 91.7446 96H93.7446C93.7446 96.1034 93.7165 96.2068 93.6668 96.2936C93.6209 96.374 93.5723 96.4132 93.5606 96.422L92.3606 94.822ZM92.7446 95H92.1236V97H92.7446V95ZM93.1236 96V92.247H91.1236V96H93.1236ZM92.1236 93.247H92.7176V91.247H92.1236V93.247ZM91.734 92.4273C91.9788 93.7626 92.6643 94.8204 93.8067 95.4868L94.8145 93.7592C94.2289 93.4176 93.8524 92.8914 93.7012 92.0667L91.734 92.4273ZM93.828 95.4988C94.8733 96.0748 96.0415 96.352 97.3076 96.352V94.352C96.3417 94.352 95.5119 94.1432 94.7932 93.7472L93.828 95.4988ZM97.3076 96.352C98.4115 96.352 99.4116 96.101 100.233 95.521L99.0799 93.887C98.6776 94.171 98.1116 94.352 97.3076 94.352V96.352ZM100.233 95.521C101.154 94.8708 101.575 93.8916 101.575 92.76H99.5746C99.5746 93.3564 99.3828 93.6732 99.0799 93.887L100.233 95.521ZM101.575 92.76C101.575 92.2061 101.447 91.6771 101.179 91.1944L99.4304 92.1656C99.5223 92.3309 99.5746 92.5219 99.5746 92.76H101.575ZM101.199 91.2328C100.953 90.7404 100.576 90.3301 100.122 89.989L98.9216 91.589C99.1868 91.7879 99.3324 91.9716 99.4102 92.1272L101.199 91.2328ZM100.166 90.0241C99.7842 89.7028 99.3985 89.4297 99.0082 89.2128L98.0369 90.9612C98.2946 91.1043 98.5749 91.2992 98.8774 91.5539L100.166 90.0241ZM99.044 89.2337C98.692 89.0186 98.246 88.7725 97.713 88.4968L96.7942 90.2732C97.3051 90.5375 97.7052 90.7594 98.0011 90.9403L99.044 89.2337ZM97.7497 88.5168C97.2477 88.2299 96.8679 88.009 96.6071 87.8525L95.5781 89.5675C95.8572 89.735 96.2515 89.9641 96.7574 90.2532L97.7497 88.5168ZM96.6248 87.8634C95.9955 87.4678 95.5321 87.1737 95.2318 86.9794L94.1453 88.6586C94.4571 88.8603 94.9297 89.1602 95.5604 89.5566L96.6248 87.8634ZM95.2653 87.002C94.9953 86.8114 94.6256 86.5187 94.149 86.1128L92.8521 87.6352C93.3476 88.0573 93.7699 88.3946 94.1119 88.636L95.2653 87.002ZM94.1632 86.125C93.7708 85.7779 93.5218 85.4488 93.3761 85.1453L91.5731 86.0107C91.8594 86.6072 92.2944 87.1421 92.838 87.623L94.1632 86.125ZM93.3761 85.1453C93.2279 84.8365 93.1506 84.4992 93.1506 84.12H91.1506C91.1506 84.7848 91.2893 85.4195 91.5731 86.0107L93.3761 85.1453ZM93.1506 84.12C93.1506 83.4065 93.4625 82.6988 94.2729 81.9784L92.9442 80.4836C91.8107 81.4912 91.1506 82.7095 91.1506 84.12H93.1506ZM94.2729 81.9784C95.0775 81.2633 95.9346 80.935 96.8756 80.935V78.935C95.4046 78.935 94.0837 79.4707 92.9442 80.4836L94.2729 81.9784ZM96.8756 80.935C97.2403 80.935 97.7688 81.0325 98.4902 81.2842L99.149 79.3958C98.3224 79.1075 97.5549 78.935 96.8756 78.935V80.935ZM98.4902 81.2842C98.8816 81.4207 99.1994 81.5269 99.4381 81.5999C99.5566 81.6362 99.666 81.6675 99.7604 81.6908C99.8208 81.7056 99.9787 81.745 100.143 81.745V79.745C100.185 79.745 100.216 79.7481 100.23 79.7497C100.247 79.7515 100.257 79.7534 100.26 79.7539C100.266 79.7548 100.259 79.7539 100.238 79.7486C100.195 79.7381 100.126 79.7188 100.024 79.6876C99.8213 79.6256 99.5316 79.5293 99.149 79.3958L98.4902 81.2842ZM100.143 81.745C100.589 81.745 101.002 81.5263 101.243 81.1245C101.435 80.8041 101.467 80.4524 101.467 80.205H99.4666C99.4666 80.3176 99.4439 80.2359 99.5281 80.0955C99.5791 80.0104 99.6664 79.9106 99.7987 79.8371C99.9297 79.7643 100.055 79.745 100.143 79.745V81.745ZM100.467 81.205H101.088V79.205H100.467V81.205ZM100.091 80.2835L100.361 83.7125L102.354 83.5555L102.084 80.1265L100.091 80.2835ZM101.358 82.634H100.764V84.634H101.358V82.634ZM101.754 83.4989C101.608 82.4235 101.059 81.537 100.182 80.868L98.9689 82.458C99.4604 82.833 99.7034 83.2605 99.7728 83.7691L101.754 83.4989ZM100.195 80.8781C99.2931 80.1659 98.1659 79.853 96.9026 79.853V81.853C97.8353 81.853 98.4901 82.0801 98.9559 82.4479L100.195 80.8781ZM96.9026 79.853C95.8344 79.853 94.8905 80.2125 94.1735 80.9807L95.6356 82.3453C95.9266 82.0335 96.3147 81.853 96.9026 81.853V79.853ZM94.1727 80.9816C93.5711 81.6278 93.1756 82.3907 93.1756 83.256H95.1756C95.1756 83.0413 95.2661 82.7422 95.6365 82.3444L94.1727 80.9816ZM93.1756 83.256C93.1756 83.7632 93.2975 84.2476 93.5348 84.6959L95.3024 83.7601C95.2157 83.5964 95.1756 83.4328 95.1756 83.256H93.1756ZM93.547 84.7183C93.7953 85.1596 94.1567 85.5301 94.5814 85.8431L95.7678 84.2329C95.5085 84.0419 95.3659 83.8724 95.2902 83.7377L93.547 84.7183ZM94.5814 85.8431C94.9371 86.1052 95.2778 86.342 95.6033 86.5526L96.6898 84.8734C96.4033 84.688 96.0961 84.4748 95.7678 84.2329L94.5814 85.8431ZM95.6396 86.5749C95.9618 86.7645 96.3798 86.9965 96.8894 87.2695L97.8338 85.5065C97.3354 85.2395 96.9434 85.0215 96.6536 84.8511L95.6396 86.5749ZM96.9022 87.2762C97.4185 87.5433 97.7924 87.7479 98.0351 87.8935L99.0641 86.1785C98.7668 86.0001 98.3487 85.7727 97.821 85.4998L96.9022 87.2762ZM98.029 87.8898C98.7658 88.3391 99.282 88.6631 99.5879 88.8671L100.697 87.2029C100.355 86.9749 99.8093 86.6329 99.0702 86.1822L98.029 87.8898ZM99.5879 88.8671C99.8546 89.0448 100.228 89.3421 100.719 89.7799L102.051 88.2881C101.533 87.8259 101.079 87.4572 100.697 87.2029L99.5879 88.8671ZM100.732 89.7914C101.17 90.1693 101.416 90.5144 101.538 90.8153L103.391 90.0607C103.117 89.3896 102.643 88.7987 102.038 88.2766L100.732 89.7914ZM101.557 90.8571C101.705 91.179 101.789 91.5556 101.789 92.004H103.789C103.789 91.3004 103.656 90.633 103.373 90.0189L101.557 90.8571ZM101.789 92.004C101.789 93.0137 101.404 93.7502 100.595 94.3168L101.742 95.9552C103.093 95.0098 103.789 93.6583 103.789 92.004H101.789ZM100.595 94.3168C99.6921 94.9489 98.6616 95.27 97.4696 95.27V97.27C99.0496 97.27 100.485 96.8351 101.742 95.9552L100.595 94.3168Z" fill="#9A480D" mask="url(#path-4-inside-1_1_32)"/>
</svg>
